<svg width="1280" height="893" viewBox="0 0 1280 893" fill="none" xmlns="http://www.w3.org/2000/svg">
<rect x="2" y="35" width="1276" height="856" rx="8" fill="white" stroke="#111111" stroke-width="4"/>
<circle cx="113" cy="66" r="11" fill="white" stroke="#828282" stroke-width="2"/>
<circle cx="113" cy="12" r="11" fill="white" stroke="#828282" stroke-width="2"/>
<rect x="106" y="5" width="14" height="68" rx="7" fill="url(#paint0_linear)" stroke="#828282" stroke-width="2"/>
<circle cx="1104" cy="66" r="11" fill="white" stroke="#828282" stroke-width="2"/>
<circle cx="1104" cy="12" r="11" fill="white" stroke="#828282" stroke-width="2"/>
<rect x="1097" y="5" width="14" height="68" rx="7" fill="url(#paint1_linear)" stroke="#828282" stroke-width="2"/>
<circle cx="177" cy="66" r="11" fill="white" stroke="#828282" stroke-width="2"/>
<circle cx="177" cy="12" r="11" fill="white" stroke="#828282" stroke-width="2"/>
<rect x="170" y="5" width="14" height="68" rx="7" fill="url(#paint2_linear)" stroke="#828282" stroke-width="2"/>
<circle cx="1168" cy="66" r="11" fill="white" stroke="#828282" stroke-width="2"/>
<circle cx="1168" cy="12" r="11" fill="white" stroke="#828282" stroke-width="2"/>
<rect x="1161" y="5" width="14" height="68" rx="7" fill="url(#paint3_linear)" stroke="#828282" stroke-width="2"/>
<defs>
<linearGradient id="paint0_linear" x1="113" y1="4" x2="113" y2="74" gradientUnits="userSpaceOnUse">
<stop stop-color="white"/>
<stop offset="1" stop-color="#CBCBCB"/>
</linearGradient>
<linearGradient id="paint1_linear" x1="1104" y1="4" x2="1104" y2="74" gradientUnits="userSpaceOnUse">
<stop stop-color="white"/>
<stop offset="1" stop-color="#CBCBCB"/>
</linearGradient>
<linearGradient id="paint2_linear" x1="177" y1="4" x2="177" y2="74" gradientUnits="userSpaceOnUse">
<stop stop-color="white"/>
<stop offset="1" stop-color="#CBCBCB"/>
</linearGradient>
<linearGradient id="paint3_linear" x1="1168" y1="4" x2="1168" y2="74" gradientUnits="userSpaceOnUse">
<stop stop-color="white"/>
<stop offset="1" stop-color="#CBCBCB"/>
</linearGradient>
</defs>
</svg>
